<mxfile host="app.diagrams.net" agent="Mozilla/5.0 (Windows NT 10.0; Win64; x64) AppleWebKit/537.36 (KHTML, like Gecko) Chrome/131.0.0.0 Safari/537.36" version="25.0.3" pages="4">
  <diagram name="Page-1" id="GgEF4_sgdFon58qD7pR8">
    <mxGraphModel dx="1400" dy="696" grid="1" gridSize="10" guides="1" tooltips="1" connect="1" arrows="1" fold="1" page="1" pageScale="1" pageWidth="850" pageHeight="1100" math="0" shadow="0">
      <root>
        <mxCell id="0" />
        <mxCell id="1" parent="0" />
        <mxCell id="jL3gFQ0Hk8iHvKm5DvNS-4" value="Business Manager" style="shape=umlActor;verticalLabelPosition=bottom;verticalAlign=top;html=1;" parent="1" vertex="1">
          <mxGeometry x="110" y="330" width="30" height="60" as="geometry" />
        </mxCell>
        <mxCell id="jL3gFQ0Hk8iHvKm5DvNS-6" value="&lt;h3&gt;&lt;strong&gt;Strategic Planning and Management&lt;/strong&gt;&lt;/h3&gt;" style="ellipse;whiteSpace=wrap;html=1;" parent="1" vertex="1">
          <mxGeometry x="330" y="40" width="140" height="70" as="geometry" />
        </mxCell>
        <mxCell id="jL3gFQ0Hk8iHvKm5DvNS-7" value="&lt;h3&gt;&lt;strong&gt;Team Management&lt;/strong&gt;&lt;/h3&gt;" style="ellipse;whiteSpace=wrap;html=1;" parent="1" vertex="1">
          <mxGeometry x="330" y="270" width="140" height="70" as="geometry" />
        </mxCell>
        <mxCell id="jL3gFQ0Hk8iHvKm5DvNS-8" value="&lt;h3&gt;&lt;strong&gt;Product and Inventory Management&lt;/strong&gt;&lt;/h3&gt;" style="ellipse;whiteSpace=wrap;html=1;" parent="1" vertex="1">
          <mxGeometry x="330" y="400" width="140" height="70" as="geometry" />
        </mxCell>
        <mxCell id="jL3gFQ0Hk8iHvKm5DvNS-9" value="&lt;h3&gt;&lt;strong&gt;Regulatory and Compliance&lt;/strong&gt;&lt;/h3&gt;" style="ellipse;whiteSpace=wrap;html=1;" parent="1" vertex="1">
          <mxGeometry x="330" y="530" width="140" height="70" as="geometry" />
        </mxCell>
        <mxCell id="sarxLbDdq7mtUPqzs_cO-1" value="&lt;h3&gt;&lt;strong&gt;Partnerships and Collaboration&lt;/strong&gt;&lt;/h3&gt;" style="ellipse;whiteSpace=wrap;html=1;" vertex="1" parent="1">
          <mxGeometry x="330" y="660" width="140" height="70" as="geometry" />
        </mxCell>
        <mxCell id="sarxLbDdq7mtUPqzs_cO-2" value="&lt;h3&gt;&lt;strong&gt;Financial Management&lt;/strong&gt;&lt;/h3&gt;" style="ellipse;whiteSpace=wrap;html=1;" vertex="1" parent="1">
          <mxGeometry x="330" y="150" width="140" height="70" as="geometry" />
        </mxCell>
        <mxCell id="sarxLbDdq7mtUPqzs_cO-10" value="" style="endArrow=none;html=1;rounded=0;entryX=0;entryY=0.5;entryDx=0;entryDy=0;" edge="1" parent="1" source="jL3gFQ0Hk8iHvKm5DvNS-4" target="sarxLbDdq7mtUPqzs_cO-2">
          <mxGeometry width="50" height="50" relative="1" as="geometry">
            <mxPoint x="160" y="350" as="sourcePoint" />
            <mxPoint x="320" y="280" as="targetPoint" />
          </mxGeometry>
        </mxCell>
        <mxCell id="sarxLbDdq7mtUPqzs_cO-12" value="" style="endArrow=none;html=1;rounded=0;exitX=1;exitY=0.3333333333333333;exitDx=0;exitDy=0;exitPerimeter=0;entryX=0;entryY=0.5;entryDx=0;entryDy=0;" edge="1" parent="1" source="jL3gFQ0Hk8iHvKm5DvNS-4" target="jL3gFQ0Hk8iHvKm5DvNS-6">
          <mxGeometry width="50" height="50" relative="1" as="geometry">
            <mxPoint x="400" y="420" as="sourcePoint" />
            <mxPoint x="450" y="370" as="targetPoint" />
          </mxGeometry>
        </mxCell>
        <mxCell id="sarxLbDdq7mtUPqzs_cO-13" value="" style="endArrow=none;html=1;rounded=0;exitX=1;exitY=0.3333333333333333;exitDx=0;exitDy=0;exitPerimeter=0;entryX=0;entryY=0.5;entryDx=0;entryDy=0;" edge="1" parent="1" source="jL3gFQ0Hk8iHvKm5DvNS-4" target="jL3gFQ0Hk8iHvKm5DvNS-7">
          <mxGeometry width="50" height="50" relative="1" as="geometry">
            <mxPoint x="400" y="420" as="sourcePoint" />
            <mxPoint x="450" y="370" as="targetPoint" />
          </mxGeometry>
        </mxCell>
        <mxCell id="sarxLbDdq7mtUPqzs_cO-14" value="" style="endArrow=none;html=1;rounded=0;entryX=1;entryY=0.3333333333333333;entryDx=0;entryDy=0;entryPerimeter=0;exitX=0;exitY=0.5;exitDx=0;exitDy=0;" edge="1" parent="1" source="jL3gFQ0Hk8iHvKm5DvNS-8" target="jL3gFQ0Hk8iHvKm5DvNS-4">
          <mxGeometry width="50" height="50" relative="1" as="geometry">
            <mxPoint x="50" y="580" as="sourcePoint" />
            <mxPoint x="100" y="530" as="targetPoint" />
          </mxGeometry>
        </mxCell>
        <mxCell id="sarxLbDdq7mtUPqzs_cO-15" value="" style="endArrow=none;html=1;rounded=0;exitX=0;exitY=0.5;exitDx=0;exitDy=0;" edge="1" parent="1" source="jL3gFQ0Hk8iHvKm5DvNS-9">
          <mxGeometry width="50" height="50" relative="1" as="geometry">
            <mxPoint x="120" y="560" as="sourcePoint" />
            <mxPoint x="140" y="350" as="targetPoint" />
          </mxGeometry>
        </mxCell>
        <mxCell id="sarxLbDdq7mtUPqzs_cO-16" value="" style="endArrow=none;html=1;rounded=0;exitX=0;exitY=0.5;exitDx=0;exitDy=0;" edge="1" parent="1" source="sarxLbDdq7mtUPqzs_cO-1">
          <mxGeometry width="50" height="50" relative="1" as="geometry">
            <mxPoint x="80" y="560" as="sourcePoint" />
            <mxPoint x="140" y="350" as="targetPoint" />
          </mxGeometry>
        </mxCell>
      </root>
    </mxGraphModel>
  </diagram>
  <diagram id="lsqVFX-my5vCSfNwmKmU" name="Page-2">
    <mxGraphModel dx="1909" dy="949" grid="1" gridSize="10" guides="1" tooltips="1" connect="1" arrows="1" fold="1" page="1" pageScale="1" pageWidth="850" pageHeight="1100" math="0" shadow="0">
      <root>
        <mxCell id="0" />
        <mxCell id="1" parent="0" />
        <mxCell id="KRaq96SKuHb2gP0qjPb9-10" style="rounded=0;orthogonalLoop=1;jettySize=auto;html=1;exitX=1;exitY=0.3333333333333333;exitDx=0;exitDy=0;exitPerimeter=0;entryX=0;entryY=0.5;entryDx=0;entryDy=0;" edge="1" parent="1" source="KRaq96SKuHb2gP0qjPb9-1" target="KRaq96SKuHb2gP0qjPb9-2">
          <mxGeometry relative="1" as="geometry" />
        </mxCell>
        <mxCell id="KRaq96SKuHb2gP0qjPb9-1" value="WEB Developer" style="shape=umlActor;verticalLabelPosition=bottom;verticalAlign=top;html=1;" vertex="1" parent="1">
          <mxGeometry x="50" y="365" width="30" height="60" as="geometry" />
        </mxCell>
        <mxCell id="KRaq96SKuHb2gP0qjPb9-2" value="&lt;h3&gt;&lt;strong&gt;Frontend Development&lt;/strong&gt;&lt;/h3&gt;" style="ellipse;whiteSpace=wrap;html=1;" vertex="1" parent="1">
          <mxGeometry x="190" y="10" width="160" height="70" as="geometry" />
        </mxCell>
        <mxCell id="KRaq96SKuHb2gP0qjPb9-3" value="UI/UX Expert" style="shape=umlActor;verticalLabelPosition=bottom;verticalAlign=top;html=1;" vertex="1" parent="1">
          <mxGeometry x="480" width="20" height="40" as="geometry" />
        </mxCell>
        <mxCell id="KRaq96SKuHb2gP0qjPb9-4" value="Designer" style="shape=umlActor;verticalLabelPosition=bottom;verticalAlign=top;html=1;" vertex="1" parent="1">
          <mxGeometry x="480" y="70" width="20" height="40" as="geometry" />
        </mxCell>
        <mxCell id="KRaq96SKuHb2gP0qjPb9-7" style="rounded=0;orthogonalLoop=1;jettySize=auto;html=1;exitX=1;exitY=0.5;exitDx=0;exitDy=0;entryX=0;entryY=0.3333333333333333;entryDx=0;entryDy=0;entryPerimeter=0;" edge="1" parent="1" source="KRaq96SKuHb2gP0qjPb9-2" target="KRaq96SKuHb2gP0qjPb9-3">
          <mxGeometry relative="1" as="geometry" />
        </mxCell>
        <mxCell id="KRaq96SKuHb2gP0qjPb9-8" style="rounded=0;orthogonalLoop=1;jettySize=auto;html=1;exitX=1;exitY=0.5;exitDx=0;exitDy=0;entryX=0;entryY=0.3333333333333333;entryDx=0;entryDy=0;entryPerimeter=0;" edge="1" parent="1" source="KRaq96SKuHb2gP0qjPb9-2" target="KRaq96SKuHb2gP0qjPb9-4">
          <mxGeometry relative="1" as="geometry" />
        </mxCell>
        <mxCell id="KRaq96SKuHb2gP0qjPb9-11" value="&lt;h3&gt;&lt;strong&gt;Backend Development&lt;/strong&gt;&lt;/h3&gt;" style="ellipse;whiteSpace=wrap;html=1;" vertex="1" parent="1">
          <mxGeometry x="190" y="130" width="160" height="70" as="geometry" />
        </mxCell>
        <mxCell id="KRaq96SKuHb2gP0qjPb9-14" style="rounded=0;orthogonalLoop=1;jettySize=auto;html=1;exitX=1;exitY=0.5;exitDx=0;exitDy=0;" edge="1" parent="1" source="KRaq96SKuHb2gP0qjPb9-12" target="KRaq96SKuHb2gP0qjPb9-13">
          <mxGeometry relative="1" as="geometry" />
        </mxCell>
        <mxCell id="KRaq96SKuHb2gP0qjPb9-29" style="rounded=0;orthogonalLoop=1;jettySize=auto;html=1;entryX=0;entryY=0.5;entryDx=0;entryDy=0;exitX=1;exitY=0.3333333333333333;exitDx=0;exitDy=0;exitPerimeter=0;" edge="1" parent="1" source="KRaq96SKuHb2gP0qjPb9-1" target="KRaq96SKuHb2gP0qjPb9-12">
          <mxGeometry relative="1" as="geometry">
            <mxPoint x="80" y="390" as="sourcePoint" />
          </mxGeometry>
        </mxCell>
        <mxCell id="KRaq96SKuHb2gP0qjPb9-12" value="&lt;h3&gt;E-commerce Platform Management&lt;/h3&gt;" style="ellipse;whiteSpace=wrap;html=1;" vertex="1" parent="1">
          <mxGeometry x="190" y="240" width="160" height="70" as="geometry" />
        </mxCell>
        <mxCell id="KRaq96SKuHb2gP0qjPb9-13" value="Financial Expert" style="shape=umlActor;verticalLabelPosition=bottom;verticalAlign=top;html=1;" vertex="1" parent="1">
          <mxGeometry x="470" y="255" width="20" height="40" as="geometry" />
        </mxCell>
        <mxCell id="KRaq96SKuHb2gP0qjPb9-30" style="rounded=0;orthogonalLoop=1;jettySize=auto;html=1;entryX=0;entryY=0.5;entryDx=0;entryDy=0;exitX=1;exitY=0.3333333333333333;exitDx=0;exitDy=0;exitPerimeter=0;" edge="1" parent="1" source="KRaq96SKuHb2gP0qjPb9-1" target="KRaq96SKuHb2gP0qjPb9-15">
          <mxGeometry relative="1" as="geometry">
            <mxPoint x="80" y="390" as="sourcePoint" />
          </mxGeometry>
        </mxCell>
        <mxCell id="KRaq96SKuHb2gP0qjPb9-15" value="&lt;h3&gt;&lt;strong&gt;Security and Performance&lt;/strong&gt;&lt;/h3&gt;" style="ellipse;whiteSpace=wrap;html=1;" vertex="1" parent="1">
          <mxGeometry x="190" y="360" width="160" height="70" as="geometry" />
        </mxCell>
        <mxCell id="KRaq96SKuHb2gP0qjPb9-16" value="Network Admin" style="shape=umlActor;verticalLabelPosition=bottom;verticalAlign=top;html=1;" vertex="1" parent="1">
          <mxGeometry x="470" y="350" width="20" height="40" as="geometry" />
        </mxCell>
        <mxCell id="KRaq96SKuHb2gP0qjPb9-19" style="rounded=0;orthogonalLoop=1;jettySize=auto;html=1;exitX=1;exitY=0.5;exitDx=0;exitDy=0;entryX=0;entryY=0.3333333333333333;entryDx=0;entryDy=0;entryPerimeter=0;" edge="1" parent="1" source="KRaq96SKuHb2gP0qjPb9-15" target="KRaq96SKuHb2gP0qjPb9-17">
          <mxGeometry relative="1" as="geometry" />
        </mxCell>
        <mxCell id="KRaq96SKuHb2gP0qjPb9-17" value="SOC Expert" style="shape=umlActor;verticalLabelPosition=bottom;verticalAlign=top;html=1;" vertex="1" parent="1">
          <mxGeometry x="470" y="420" width="20" height="40" as="geometry" />
        </mxCell>
        <mxCell id="KRaq96SKuHb2gP0qjPb9-18" style="rounded=0;orthogonalLoop=1;jettySize=auto;html=1;exitX=1;exitY=0.5;exitDx=0;exitDy=0;entryX=0;entryY=0.3333333333333333;entryDx=0;entryDy=0;entryPerimeter=0;" edge="1" parent="1" source="KRaq96SKuHb2gP0qjPb9-15" target="KRaq96SKuHb2gP0qjPb9-16">
          <mxGeometry relative="1" as="geometry" />
        </mxCell>
        <mxCell id="KRaq96SKuHb2gP0qjPb9-31" style="rounded=0;orthogonalLoop=1;jettySize=auto;html=1;exitX=1;exitY=0.3333333333333333;exitDx=0;exitDy=0;entryX=0;entryY=0.5;entryDx=0;entryDy=0;exitPerimeter=0;" edge="1" parent="1" source="KRaq96SKuHb2gP0qjPb9-1" target="KRaq96SKuHb2gP0qjPb9-20">
          <mxGeometry relative="1" as="geometry">
            <mxPoint x="100" y="260" as="sourcePoint" />
          </mxGeometry>
        </mxCell>
        <mxCell id="KRaq96SKuHb2gP0qjPb9-20" value="&lt;h3&gt;&lt;strong&gt;Testing and Debugging&lt;/strong&gt;&lt;/h3&gt;" style="ellipse;whiteSpace=wrap;html=1;" vertex="1" parent="1">
          <mxGeometry x="190" y="480" width="160" height="70" as="geometry" />
        </mxCell>
        <mxCell id="KRaq96SKuHb2gP0qjPb9-32" style="rounded=0;orthogonalLoop=1;jettySize=auto;html=1;entryX=0;entryY=0.5;entryDx=0;entryDy=0;exitX=1;exitY=0.3333333333333333;exitDx=0;exitDy=0;exitPerimeter=0;" edge="1" parent="1" source="KRaq96SKuHb2gP0qjPb9-1" target="KRaq96SKuHb2gP0qjPb9-21">
          <mxGeometry relative="1" as="geometry">
            <mxPoint x="80" y="380" as="sourcePoint" />
          </mxGeometry>
        </mxCell>
        <mxCell id="KRaq96SKuHb2gP0qjPb9-21" value="&lt;h3&gt;&lt;strong&gt;SEO and Analytics&lt;/strong&gt;&lt;/h3&gt;" style="ellipse;whiteSpace=wrap;html=1;" vertex="1" parent="1">
          <mxGeometry x="190" y="580" width="160" height="70" as="geometry" />
        </mxCell>
        <mxCell id="KRaq96SKuHb2gP0qjPb9-22" value="&lt;h3&gt;&lt;strong&gt;Maintenance and Updates&lt;/strong&gt;&lt;/h3&gt;" style="ellipse;whiteSpace=wrap;html=1;" vertex="1" parent="1">
          <mxGeometry x="190" y="700" width="160" height="70" as="geometry" />
        </mxCell>
        <mxCell id="KRaq96SKuHb2gP0qjPb9-23" value="SEO Expert" style="shape=umlActor;verticalLabelPosition=bottom;verticalAlign=top;html=1;" vertex="1" parent="1">
          <mxGeometry x="470" y="560" width="20" height="40" as="geometry" />
        </mxCell>
        <mxCell id="KRaq96SKuHb2gP0qjPb9-27" style="rounded=0;orthogonalLoop=1;jettySize=auto;html=1;exitX=1;exitY=0.5;exitDx=0;exitDy=0;entryX=0;entryY=0.3333333333333333;entryDx=0;entryDy=0;entryPerimeter=0;" edge="1" parent="1" source="KRaq96SKuHb2gP0qjPb9-21" target="KRaq96SKuHb2gP0qjPb9-24">
          <mxGeometry relative="1" as="geometry">
            <mxPoint x="350" y="610" as="sourcePoint" />
          </mxGeometry>
        </mxCell>
        <mxCell id="KRaq96SKuHb2gP0qjPb9-24" value="Content Manger" style="shape=umlActor;verticalLabelPosition=bottom;verticalAlign=top;html=1;" vertex="1" parent="1">
          <mxGeometry x="470" y="640" width="20" height="40" as="geometry" />
        </mxCell>
        <mxCell id="KRaq96SKuHb2gP0qjPb9-26" style="rounded=0;orthogonalLoop=1;jettySize=auto;html=1;exitX=1;exitY=0.5;exitDx=0;exitDy=0;entryX=0;entryY=0.3333333333333333;entryDx=0;entryDy=0;entryPerimeter=0;" edge="1" parent="1" source="KRaq96SKuHb2gP0qjPb9-21" target="KRaq96SKuHb2gP0qjPb9-23">
          <mxGeometry relative="1" as="geometry" />
        </mxCell>
        <mxCell id="KRaq96SKuHb2gP0qjPb9-28" style="rounded=0;orthogonalLoop=1;jettySize=auto;html=1;exitX=1;exitY=0.3333333333333333;exitDx=0;exitDy=0;exitPerimeter=0;entryX=0;entryY=0.571;entryDx=0;entryDy=0;entryPerimeter=0;" edge="1" parent="1" source="KRaq96SKuHb2gP0qjPb9-1" target="KRaq96SKuHb2gP0qjPb9-11">
          <mxGeometry relative="1" as="geometry" />
        </mxCell>
        <mxCell id="KRaq96SKuHb2gP0qjPb9-33" style="rounded=0;orthogonalLoop=1;jettySize=auto;html=1;exitX=1;exitY=0.3333333333333333;exitDx=0;exitDy=0;entryX=0;entryY=0.5;entryDx=0;entryDy=0;exitPerimeter=0;" edge="1" parent="1" source="KRaq96SKuHb2gP0qjPb9-1" target="KRaq96SKuHb2gP0qjPb9-22">
          <mxGeometry relative="1" as="geometry" />
        </mxCell>
      </root>
    </mxGraphModel>
  </diagram>
  <diagram id="eu2Yjx9jP-h3ns89Xm4m" name="Page-3">
    <mxGraphModel dx="2625" dy="1305" grid="1" gridSize="10" guides="1" tooltips="1" connect="1" arrows="1" fold="1" page="1" pageScale="1" pageWidth="850" pageHeight="1100" math="0" shadow="0">
      <root>
        <mxCell id="0" />
        <mxCell id="1" parent="0" />
        <mxCell id="2sjG_T7RFnJAYNDUJtQi-1" value="Logistic Manager" style="shape=umlActor;verticalLabelPosition=bottom;verticalAlign=top;html=1;" vertex="1" parent="1">
          <mxGeometry x="60" y="275" width="30" height="60" as="geometry" />
        </mxCell>
        <mxCell id="2sjG_T7RFnJAYNDUJtQi-2" value="&lt;h3&gt;&lt;strong&gt;Warehousing Management&lt;/strong&gt;&lt;/h3&gt;" style="ellipse;whiteSpace=wrap;html=1;" vertex="1" parent="1">
          <mxGeometry x="299" y="25" width="140" height="70" as="geometry" />
        </mxCell>
        <mxCell id="2sjG_T7RFnJAYNDUJtQi-3" value="WH Manager" style="shape=umlActor;verticalLabelPosition=bottom;verticalAlign=top;html=1;" vertex="1" parent="1">
          <mxGeometry x="540" y="47" width="20" height="40" as="geometry" />
        </mxCell>
        <mxCell id="2sjG_T7RFnJAYNDUJtQi-22" style="rounded=0;orthogonalLoop=1;jettySize=auto;html=1;exitX=1;exitY=0.3333333333333333;exitDx=0;exitDy=0;entryX=0;entryY=0.5;entryDx=0;entryDy=0;exitPerimeter=0;" edge="1" parent="1" source="2sjG_T7RFnJAYNDUJtQi-1" target="2sjG_T7RFnJAYNDUJtQi-4">
          <mxGeometry relative="1" as="geometry">
            <mxPoint x="110" y="240" as="sourcePoint" />
          </mxGeometry>
        </mxCell>
        <mxCell id="2sjG_T7RFnJAYNDUJtQi-4" value="&lt;h3&gt;&lt;strong&gt;Shipping and Delivery Management&lt;/strong&gt;&lt;/h3&gt;" style="ellipse;whiteSpace=wrap;html=1;" vertex="1" parent="1">
          <mxGeometry x="300" y="150" width="140" height="70" as="geometry" />
        </mxCell>
        <mxCell id="2sjG_T7RFnJAYNDUJtQi-5" value="Shipping Companies" style="shape=umlActor;verticalLabelPosition=bottom;verticalAlign=top;html=1;" vertex="1" parent="1">
          <mxGeometry x="540" y="125" width="20" height="40" as="geometry" />
        </mxCell>
        <mxCell id="2sjG_T7RFnJAYNDUJtQi-6" value="Customers" style="shape=umlActor;verticalLabelPosition=bottom;verticalAlign=top;html=1;" vertex="1" parent="1">
          <mxGeometry x="540" y="210" width="20" height="40" as="geometry" />
        </mxCell>
        <mxCell id="2sjG_T7RFnJAYNDUJtQi-10" style="rounded=0;orthogonalLoop=1;jettySize=auto;html=1;exitX=1;exitY=0.5;exitDx=0;exitDy=0;entryX=0;entryY=0.3333333333333333;entryDx=0;entryDy=0;entryPerimeter=0;" edge="1" parent="1" source="2sjG_T7RFnJAYNDUJtQi-4" target="2sjG_T7RFnJAYNDUJtQi-7">
          <mxGeometry relative="1" as="geometry">
            <mxPoint x="440" y="190" as="sourcePoint" />
          </mxGeometry>
        </mxCell>
        <mxCell id="2sjG_T7RFnJAYNDUJtQi-7" value="Suppliers Companies" style="shape=umlActor;verticalLabelPosition=bottom;verticalAlign=top;html=1;" vertex="1" parent="1">
          <mxGeometry x="630" y="173" width="20" height="40" as="geometry" />
        </mxCell>
        <mxCell id="2sjG_T7RFnJAYNDUJtQi-8" style="rounded=0;orthogonalLoop=1;jettySize=auto;html=1;exitX=1;exitY=0.5;exitDx=0;exitDy=0;entryX=0;entryY=0.3333333333333333;entryDx=0;entryDy=0;entryPerimeter=0;" edge="1" parent="1" source="2sjG_T7RFnJAYNDUJtQi-2" target="2sjG_T7RFnJAYNDUJtQi-3">
          <mxGeometry relative="1" as="geometry" />
        </mxCell>
        <mxCell id="2sjG_T7RFnJAYNDUJtQi-9" style="rounded=0;orthogonalLoop=1;jettySize=auto;html=1;exitX=1;exitY=0.5;exitDx=0;exitDy=0;entryX=0;entryY=0.3333333333333333;entryDx=0;entryDy=0;entryPerimeter=0;" edge="1" parent="1" source="2sjG_T7RFnJAYNDUJtQi-4" target="2sjG_T7RFnJAYNDUJtQi-5">
          <mxGeometry relative="1" as="geometry" />
        </mxCell>
        <mxCell id="2sjG_T7RFnJAYNDUJtQi-11" style="rounded=0;orthogonalLoop=1;jettySize=auto;html=1;exitX=1;exitY=0.5;exitDx=0;exitDy=0;entryX=0;entryY=0.3333333333333333;entryDx=0;entryDy=0;entryPerimeter=0;" edge="1" parent="1" source="2sjG_T7RFnJAYNDUJtQi-4" target="2sjG_T7RFnJAYNDUJtQi-6">
          <mxGeometry relative="1" as="geometry" />
        </mxCell>
        <mxCell id="2sjG_T7RFnJAYNDUJtQi-23" style="rounded=0;orthogonalLoop=1;jettySize=auto;html=1;exitX=1;exitY=0.3333333333333333;exitDx=0;exitDy=0;entryX=0;entryY=0.5;entryDx=0;entryDy=0;exitPerimeter=0;" edge="1" parent="1" source="2sjG_T7RFnJAYNDUJtQi-1" target="2sjG_T7RFnJAYNDUJtQi-12">
          <mxGeometry relative="1" as="geometry">
            <mxPoint x="110" y="240" as="sourcePoint" />
          </mxGeometry>
        </mxCell>
        <mxCell id="2sjG_T7RFnJAYNDUJtQi-12" value="&lt;h3&gt;&lt;strong&gt;Quality Control&lt;/strong&gt;&lt;/h3&gt;" style="ellipse;whiteSpace=wrap;html=1;" vertex="1" parent="1">
          <mxGeometry x="299" y="260" width="140" height="70" as="geometry" />
        </mxCell>
        <mxCell id="2sjG_T7RFnJAYNDUJtQi-24" style="rounded=0;orthogonalLoop=1;jettySize=auto;html=1;entryX=0;entryY=0.5;entryDx=0;entryDy=0;exitX=1;exitY=0.3333333333333333;exitDx=0;exitDy=0;exitPerimeter=0;" edge="1" parent="1" source="2sjG_T7RFnJAYNDUJtQi-1" target="2sjG_T7RFnJAYNDUJtQi-13">
          <mxGeometry relative="1" as="geometry">
            <mxPoint x="90" y="300" as="sourcePoint" />
          </mxGeometry>
        </mxCell>
        <mxCell id="2sjG_T7RFnJAYNDUJtQi-13" value="&lt;h3&gt;&lt;strong&gt;Cost Optimization&lt;/strong&gt;&lt;/h3&gt;" style="ellipse;whiteSpace=wrap;html=1;" vertex="1" parent="1">
          <mxGeometry x="299" y="370" width="140" height="70" as="geometry" />
        </mxCell>
        <mxCell id="2sjG_T7RFnJAYNDUJtQi-25" style="rounded=0;orthogonalLoop=1;jettySize=auto;html=1;exitX=1;exitY=0.3333333333333333;exitDx=0;exitDy=0;entryX=0;entryY=0.5;entryDx=0;entryDy=0;exitPerimeter=0;" edge="1" parent="1" source="2sjG_T7RFnJAYNDUJtQi-1" target="2sjG_T7RFnJAYNDUJtQi-14">
          <mxGeometry relative="1" as="geometry">
            <mxPoint x="110" y="240" as="sourcePoint" />
          </mxGeometry>
        </mxCell>
        <mxCell id="2sjG_T7RFnJAYNDUJtQi-14" value="&lt;h3&gt;&lt;strong&gt;Compliance and Safety&lt;/strong&gt;&lt;/h3&gt;" style="ellipse;whiteSpace=wrap;html=1;" vertex="1" parent="1">
          <mxGeometry x="300" y="480" width="140" height="70" as="geometry" />
        </mxCell>
        <mxCell id="2sjG_T7RFnJAYNDUJtQi-16" value="CRM Manager" style="shape=umlActor;verticalLabelPosition=bottom;verticalAlign=top;html=1;" vertex="1" parent="1">
          <mxGeometry x="540" y="460" width="20" height="40" as="geometry" />
        </mxCell>
        <mxCell id="2sjG_T7RFnJAYNDUJtQi-20" style="rounded=0;orthogonalLoop=1;jettySize=auto;html=1;exitX=1;exitY=0.5;exitDx=0;exitDy=0;entryX=0;entryY=0.3333333333333333;entryDx=0;entryDy=0;entryPerimeter=0;" edge="1" parent="1" source="2sjG_T7RFnJAYNDUJtQi-14" target="2sjG_T7RFnJAYNDUJtQi-17">
          <mxGeometry relative="1" as="geometry">
            <mxPoint x="440" y="540" as="sourcePoint" />
          </mxGeometry>
        </mxCell>
        <mxCell id="2sjG_T7RFnJAYNDUJtQi-17" value="Legal Expert" style="shape=umlActor;verticalLabelPosition=bottom;verticalAlign=top;html=1;" vertex="1" parent="1">
          <mxGeometry x="540" y="540" width="20" height="40" as="geometry" />
        </mxCell>
        <mxCell id="2sjG_T7RFnJAYNDUJtQi-19" style="rounded=0;orthogonalLoop=1;jettySize=auto;html=1;exitX=1;exitY=0.5;exitDx=0;exitDy=0;entryX=0;entryY=0.3333333333333333;entryDx=0;entryDy=0;entryPerimeter=0;" edge="1" parent="1" source="2sjG_T7RFnJAYNDUJtQi-14" target="2sjG_T7RFnJAYNDUJtQi-16">
          <mxGeometry relative="1" as="geometry" />
        </mxCell>
        <mxCell id="2sjG_T7RFnJAYNDUJtQi-21" style="rounded=0;orthogonalLoop=1;jettySize=auto;html=1;exitX=1;exitY=0.3333333333333333;exitDx=0;exitDy=0;entryX=0;entryY=0.5;entryDx=0;entryDy=0;exitPerimeter=0;" edge="1" parent="1" source="2sjG_T7RFnJAYNDUJtQi-1" target="2sjG_T7RFnJAYNDUJtQi-2">
          <mxGeometry relative="1" as="geometry" />
        </mxCell>
        <mxCell id="2sjG_T7RFnJAYNDUJtQi-26" style="edgeStyle=orthogonalEdgeStyle;rounded=0;orthogonalLoop=1;jettySize=auto;html=1;exitX=0.5;exitY=1;exitDx=0;exitDy=0;" edge="1" parent="1" source="2sjG_T7RFnJAYNDUJtQi-13" target="2sjG_T7RFnJAYNDUJtQi-13">
          <mxGeometry relative="1" as="geometry" />
        </mxCell>
        <mxCell id="2sjG_T7RFnJAYNDUJtQi-27" value="&lt;h3&gt;&lt;strong&gt;Team Management&lt;/strong&gt;&lt;/h3&gt;" style="ellipse;whiteSpace=wrap;html=1;" vertex="1" parent="1">
          <mxGeometry x="299" y="610" width="140" height="70" as="geometry" />
        </mxCell>
        <mxCell id="2sjG_T7RFnJAYNDUJtQi-28" style="rounded=0;orthogonalLoop=1;jettySize=auto;html=1;exitX=1;exitY=0.3333333333333333;exitDx=0;exitDy=0;entryX=0;entryY=0.5;entryDx=0;entryDy=0;exitPerimeter=0;" edge="1" parent="1" source="2sjG_T7RFnJAYNDUJtQi-1" target="2sjG_T7RFnJAYNDUJtQi-27">
          <mxGeometry relative="1" as="geometry" />
        </mxCell>
      </root>
    </mxGraphModel>
  </diagram>
  <diagram name="Copy of Page-3" id="jV8pZe7a_9bZJy2v2qmS">
    <mxGraphModel dx="1750" dy="870" grid="1" gridSize="10" guides="1" tooltips="1" connect="1" arrows="1" fold="1" page="1" pageScale="1" pageWidth="850" pageHeight="1100" math="0" shadow="0">
      <root>
        <mxCell id="EehHZsNkJDK-MrC3tAmp-0" />
        <mxCell id="EehHZsNkJDK-MrC3tAmp-1" parent="EehHZsNkJDK-MrC3tAmp-0" />
        <mxCell id="EehHZsNkJDK-MrC3tAmp-2" value="Customer" style="shape=umlActor;verticalLabelPosition=bottom;verticalAlign=top;html=1;" vertex="1" parent="EehHZsNkJDK-MrC3tAmp-1">
          <mxGeometry x="60" y="275" width="30" height="60" as="geometry" />
        </mxCell>
        <mxCell id="EehHZsNkJDK-MrC3tAmp-3" value="&lt;h3&gt;&lt;strong&gt;Browsing and Searching&lt;/strong&gt;&lt;/h3&gt;" style="ellipse;whiteSpace=wrap;html=1;" vertex="1" parent="EehHZsNkJDK-MrC3tAmp-1">
          <mxGeometry x="299" y="25" width="140" height="70" as="geometry" />
        </mxCell>
        <mxCell id="EehHZsNkJDK-MrC3tAmp-5" style="rounded=0;orthogonalLoop=1;jettySize=auto;html=1;exitX=1;exitY=0.3333333333333333;exitDx=0;exitDy=0;entryX=0;entryY=0.5;entryDx=0;entryDy=0;exitPerimeter=0;" edge="1" parent="EehHZsNkJDK-MrC3tAmp-1" source="EehHZsNkJDK-MrC3tAmp-2" target="EehHZsNkJDK-MrC3tAmp-6">
          <mxGeometry relative="1" as="geometry">
            <mxPoint x="110" y="240" as="sourcePoint" />
          </mxGeometry>
        </mxCell>
        <mxCell id="EehHZsNkJDK-MrC3tAmp-6" value="&lt;h3&gt;&lt;strong&gt;Product Evaluation and Review&lt;/strong&gt;&lt;/h3&gt;" style="ellipse;whiteSpace=wrap;html=1;" vertex="1" parent="EehHZsNkJDK-MrC3tAmp-1">
          <mxGeometry x="300" y="150" width="140" height="70" as="geometry" />
        </mxCell>
        <mxCell id="EehHZsNkJDK-MrC3tAmp-14" style="rounded=0;orthogonalLoop=1;jettySize=auto;html=1;exitX=1;exitY=0.3333333333333333;exitDx=0;exitDy=0;entryX=0;entryY=0.5;entryDx=0;entryDy=0;exitPerimeter=0;" edge="1" parent="EehHZsNkJDK-MrC3tAmp-1" source="EehHZsNkJDK-MrC3tAmp-2" target="EehHZsNkJDK-MrC3tAmp-15">
          <mxGeometry relative="1" as="geometry">
            <mxPoint x="110" y="240" as="sourcePoint" />
          </mxGeometry>
        </mxCell>
        <mxCell id="EehHZsNkJDK-MrC3tAmp-15" value="&lt;h3&gt;&lt;strong&gt;Placing an Order&lt;/strong&gt;&lt;/h3&gt;" style="ellipse;whiteSpace=wrap;html=1;" vertex="1" parent="EehHZsNkJDK-MrC3tAmp-1">
          <mxGeometry x="299" y="260" width="140" height="70" as="geometry" />
        </mxCell>
        <mxCell id="EehHZsNkJDK-MrC3tAmp-16" style="rounded=0;orthogonalLoop=1;jettySize=auto;html=1;entryX=0;entryY=0.5;entryDx=0;entryDy=0;exitX=1;exitY=0.3333333333333333;exitDx=0;exitDy=0;exitPerimeter=0;" edge="1" parent="EehHZsNkJDK-MrC3tAmp-1" source="EehHZsNkJDK-MrC3tAmp-2" target="EehHZsNkJDK-MrC3tAmp-17">
          <mxGeometry relative="1" as="geometry">
            <mxPoint x="90" y="300" as="sourcePoint" />
          </mxGeometry>
        </mxCell>
        <mxCell id="UmELmgS0PCWulBmFzHwb-5" style="rounded=0;orthogonalLoop=1;jettySize=auto;html=1;exitX=1.006;exitY=0.433;exitDx=0;exitDy=0;entryX=0;entryY=0.5;entryDx=0;entryDy=0;exitPerimeter=0;" edge="1" parent="EehHZsNkJDK-MrC3tAmp-1" source="EehHZsNkJDK-MrC3tAmp-17" target="UmELmgS0PCWulBmFzHwb-1">
          <mxGeometry relative="1" as="geometry" />
        </mxCell>
        <mxCell id="EehHZsNkJDK-MrC3tAmp-17" value="&lt;h3&gt;&lt;strong&gt;Post-Purchase Actions&lt;/strong&gt;&lt;/h3&gt;" style="ellipse;whiteSpace=wrap;html=1;" vertex="1" parent="EehHZsNkJDK-MrC3tAmp-1">
          <mxGeometry x="299" y="370" width="140" height="70" as="geometry" />
        </mxCell>
        <mxCell id="EehHZsNkJDK-MrC3tAmp-18" style="rounded=0;orthogonalLoop=1;jettySize=auto;html=1;exitX=1;exitY=0.3333333333333333;exitDx=0;exitDy=0;entryX=0;entryY=0.5;entryDx=0;entryDy=0;exitPerimeter=0;" edge="1" parent="EehHZsNkJDK-MrC3tAmp-1" source="EehHZsNkJDK-MrC3tAmp-2" target="EehHZsNkJDK-MrC3tAmp-19">
          <mxGeometry relative="1" as="geometry">
            <mxPoint x="110" y="240" as="sourcePoint" />
          </mxGeometry>
        </mxCell>
        <mxCell id="EehHZsNkJDK-MrC3tAmp-19" value="&lt;h3&gt;&lt;strong&gt;Account and Personalization&lt;/strong&gt;&lt;/h3&gt;" style="ellipse;whiteSpace=wrap;html=1;" vertex="1" parent="EehHZsNkJDK-MrC3tAmp-1">
          <mxGeometry x="300" y="480" width="140" height="70" as="geometry" />
        </mxCell>
        <mxCell id="EehHZsNkJDK-MrC3tAmp-24" style="rounded=0;orthogonalLoop=1;jettySize=auto;html=1;exitX=1;exitY=0.3333333333333333;exitDx=0;exitDy=0;entryX=0;entryY=0.5;entryDx=0;entryDy=0;exitPerimeter=0;" edge="1" parent="EehHZsNkJDK-MrC3tAmp-1" source="EehHZsNkJDK-MrC3tAmp-2" target="EehHZsNkJDK-MrC3tAmp-3">
          <mxGeometry relative="1" as="geometry" />
        </mxCell>
        <mxCell id="EehHZsNkJDK-MrC3tAmp-25" style="edgeStyle=orthogonalEdgeStyle;rounded=0;orthogonalLoop=1;jettySize=auto;html=1;exitX=0.5;exitY=1;exitDx=0;exitDy=0;" edge="1" parent="EehHZsNkJDK-MrC3tAmp-1" source="EehHZsNkJDK-MrC3tAmp-17" target="EehHZsNkJDK-MrC3tAmp-17">
          <mxGeometry relative="1" as="geometry" />
        </mxCell>
        <mxCell id="EehHZsNkJDK-MrC3tAmp-26" value="&lt;h3&gt;&lt;strong&gt;Engaging and Loyalty&lt;/strong&gt;&lt;/h3&gt;" style="ellipse;whiteSpace=wrap;html=1;" vertex="1" parent="EehHZsNkJDK-MrC3tAmp-1">
          <mxGeometry x="299" y="610" width="140" height="70" as="geometry" />
        </mxCell>
        <mxCell id="EehHZsNkJDK-MrC3tAmp-27" style="rounded=0;orthogonalLoop=1;jettySize=auto;html=1;exitX=1;exitY=0.3333333333333333;exitDx=0;exitDy=0;entryX=0;entryY=0.5;entryDx=0;entryDy=0;exitPerimeter=0;" edge="1" parent="EehHZsNkJDK-MrC3tAmp-1" source="EehHZsNkJDK-MrC3tAmp-2" target="EehHZsNkJDK-MrC3tAmp-26">
          <mxGeometry relative="1" as="geometry" />
        </mxCell>
        <mxCell id="UmELmgS0PCWulBmFzHwb-1" value="&lt;h3&gt;Tracking Orders&lt;/h3&gt;" style="ellipse;whiteSpace=wrap;html=1;" vertex="1" parent="EehHZsNkJDK-MrC3tAmp-1">
          <mxGeometry x="520" y="240" width="140" height="70" as="geometry" />
        </mxCell>
        <mxCell id="UmELmgS0PCWulBmFzHwb-6" style="rounded=0;orthogonalLoop=1;jettySize=auto;html=1;entryX=0;entryY=0.5;entryDx=0;entryDy=0;" edge="1" parent="EehHZsNkJDK-MrC3tAmp-1" target="UmELmgS0PCWulBmFzHwb-2">
          <mxGeometry relative="1" as="geometry">
            <mxPoint x="440" y="400" as="sourcePoint" />
          </mxGeometry>
        </mxCell>
        <mxCell id="UmELmgS0PCWulBmFzHwb-2" value="&lt;b&gt;Contacting Support&lt;/b&gt;" style="ellipse;whiteSpace=wrap;html=1;" vertex="1" parent="EehHZsNkJDK-MrC3tAmp-1">
          <mxGeometry x="520" y="335" width="140" height="70" as="geometry" />
        </mxCell>
        <mxCell id="UmELmgS0PCWulBmFzHwb-7" style="rounded=0;orthogonalLoop=1;jettySize=auto;html=1;exitX=0;exitY=0.5;exitDx=0;exitDy=0;entryX=0;entryY=0.5;entryDx=0;entryDy=0;" edge="1" parent="EehHZsNkJDK-MrC3tAmp-1" target="UmELmgS0PCWulBmFzHwb-3">
          <mxGeometry relative="1" as="geometry">
            <mxPoint x="440" y="400" as="sourcePoint" />
          </mxGeometry>
        </mxCell>
        <mxCell id="UmELmgS0PCWulBmFzHwb-3" value="&lt;b&gt;Returning or Exchanging Products&lt;/b&gt;" style="ellipse;whiteSpace=wrap;html=1;" vertex="1" parent="EehHZsNkJDK-MrC3tAmp-1">
          <mxGeometry x="520" y="420" width="140" height="70" as="geometry" />
        </mxCell>
        <mxCell id="UmELmgS0PCWulBmFzHwb-8" style="rounded=0;orthogonalLoop=1;jettySize=auto;html=1;exitX=0;exitY=0.5;exitDx=0;exitDy=0;entryX=0;entryY=0.5;entryDx=0;entryDy=0;" edge="1" parent="EehHZsNkJDK-MrC3tAmp-1" target="UmELmgS0PCWulBmFzHwb-4">
          <mxGeometry relative="1" as="geometry">
            <mxPoint x="440" y="400" as="sourcePoint" />
          </mxGeometry>
        </mxCell>
        <mxCell id="UmELmgS0PCWulBmFzHwb-4" value="&lt;b&gt;Leaving Feedback&lt;/b&gt;" style="ellipse;whiteSpace=wrap;html=1;" vertex="1" parent="EehHZsNkJDK-MrC3tAmp-1">
          <mxGeometry x="520" y="510" width="140" height="70" as="geometry" />
        </mxCell>
      </root>
    </mxGraphModel>
  </diagram>
</mxfile>
